<svg width="225" height="29" viewBox="0 0 225 29" fill="none" xmlns="http://www.w3.org/2000/svg">
<path d="M3 28H209.522L224 15.037L209.522 3H188.836V23.4797H209.522V8.16605H195.122V18.8672H206.391" stroke="white" stroke-width="2" stroke-linecap="round" stroke-linejoin="round"/>
<path d="M8.69 21.176C6.63667 21.176 5.038 20.5893 3.894 19.416C2.75 18.2427 2.178 16.556 2.178 14.356V5.6H4.378V14.268C4.378 17.568 5.82267 19.218 8.712 19.218C10.12 19.218 11.198 18.8147 11.946 18.008C12.694 17.1867 13.068 15.94 13.068 14.268V5.6H15.202V14.356C15.202 16.5707 14.63 18.2647 13.486 19.438C12.342 20.5967 10.7433 21.176 8.69 21.176ZM29.2021 17.15H21.0181L19.3241 21H17.0581L24.0321 5.6H26.2101L33.2061 21H30.8961L29.2021 17.15ZM28.4321 15.39L25.1101 7.844L21.7881 15.39H28.4321ZM44.4696 7.514H39.1896V5.6H51.9276V7.514H46.6476V21H44.4696V7.514ZM55.7604 11.298C56.127 10.6233 56.6697 10.11 57.3884 9.758C58.107 9.406 58.9797 9.23 60.0064 9.23V11.276C59.889 11.2613 59.7277 11.254 59.5224 11.254C58.3784 11.254 57.4764 11.5987 56.8164 12.288C56.171 12.9627 55.8484 13.9307 55.8484 15.192V21H53.7364V9.34H55.7604V11.298ZM66.8339 9.23C68.4473 9.23 69.6793 9.626 70.5299 10.418C71.3953 11.21 71.8279 12.3907 71.8279 13.96V21H69.8259V19.46C69.4739 20.0027 68.9679 20.4207 68.3079 20.714C67.6626 20.9927 66.8926 21.132 65.9979 21.132C64.6926 21.132 63.6439 20.8167 62.8519 20.186C62.0746 19.5553 61.6859 18.7267 61.6859 17.7C61.6859 16.6733 62.0599 15.852 62.8079 15.236C63.5559 14.6053 64.7439 14.29 66.3719 14.29H69.7159V13.872C69.7159 12.9627 69.4519 12.266 68.9239 11.782C68.3959 11.298 67.6186 11.056 66.5919 11.056C65.9026 11.056 65.2279 11.1733 64.5679 11.408C63.9079 11.628 63.3506 11.9287 62.8959 12.31L62.0159 10.726C62.6173 10.242 63.3359 9.87533 64.1719 9.626C65.0079 9.362 65.8953 9.23 66.8339 9.23ZM66.3499 19.504C67.1566 19.504 67.8533 19.328 68.4399 18.976C69.0266 18.6093 69.4519 18.096 69.7159 17.436V15.808H66.4599C64.6706 15.808 63.7759 16.4093 63.7759 17.612C63.7759 18.1987 64.0033 18.6607 64.4579 18.998C64.9126 19.3353 65.5433 19.504 66.3499 19.504ZM85.8395 9.34L80.7355 21H78.5795L73.4755 9.34H75.6755L79.6795 18.69L83.7715 9.34H85.8395ZM98.0263 15.236C98.0263 15.3973 98.0117 15.61 97.9823 15.874H88.5223C88.6543 16.9007 89.1017 17.7293 89.8643 18.36C90.6417 18.976 91.6023 19.284 92.7463 19.284C94.1397 19.284 95.2617 18.8147 96.1123 17.876L97.2783 19.24C96.7503 19.856 96.0903 20.3253 95.2983 20.648C94.521 20.9707 93.6483 21.132 92.6803 21.132C91.4483 21.132 90.3557 20.8827 89.4023 20.384C88.449 19.8707 87.7083 19.1593 87.1803 18.25C86.667 17.3407 86.4103 16.314 86.4103 15.17C86.4103 14.0407 86.6597 13.0213 87.1583 12.112C87.6717 11.2027 88.3683 10.4987 89.2483 10C90.143 9.48667 91.1477 9.23 92.2623 9.23C93.377 9.23 94.367 9.48667 95.2323 10C96.1123 10.4987 96.7943 11.2027 97.2783 12.112C97.777 13.0213 98.0263 14.0627 98.0263 15.236ZM92.2623 11.012C91.2503 11.012 90.3997 11.32 89.7103 11.936C89.0357 12.552 88.6397 13.3587 88.5223 14.356H96.0023C95.885 13.3733 95.4817 12.574 94.7923 11.958C94.1177 11.3273 93.2743 11.012 92.2623 11.012ZM100.959 4.676H103.071V21H100.959V4.676ZM113.32 5.6H115.52V21H113.32V5.6ZM126.048 9.23C127.53 9.23 128.703 9.66267 129.568 10.528C130.448 11.3787 130.888 12.6327 130.888 14.29V21H128.776V14.532C128.776 13.4027 128.505 12.552 127.962 11.98C127.42 11.408 126.642 11.122 125.63 11.122C124.486 11.122 123.584 11.4593 122.924 12.134C122.264 12.794 121.934 13.7473 121.934 14.994V21H119.822V9.34H121.846V11.1C122.272 10.4987 122.844 10.0367 123.562 9.714C124.296 9.39133 125.124 9.23 126.048 9.23ZM139.065 6.282C137.804 6.282 137.173 6.964 137.173 8.328V9.34H140.561V11.078H137.217V21H135.105V11.078H133.125V9.34H135.105V8.306C135.105 7.14733 135.442 6.23067 136.117 5.556C136.792 4.88133 137.738 4.544 138.955 4.544C139.424 4.544 139.864 4.60267 140.275 4.72C140.686 4.83733 141.038 5.006 141.331 5.226L140.693 6.832C140.209 6.46533 139.666 6.282 139.065 6.282ZM147.375 21.132C146.216 21.132 145.175 20.8753 144.251 20.362C143.327 19.8487 142.601 19.1447 142.073 18.25C141.56 17.3407 141.303 16.314 141.303 15.17C141.303 14.026 141.56 13.0067 142.073 12.112C142.601 11.2027 143.327 10.4987 144.251 10C145.175 9.48667 146.216 9.23 147.375 9.23C148.534 9.23 149.568 9.48667 150.477 10C151.401 10.4987 152.12 11.2027 152.633 12.112C153.161 13.0067 153.425 14.026 153.425 15.17C153.425 16.314 153.161 17.3407 152.633 18.25C152.12 19.1447 151.401 19.8487 150.477 20.362C149.568 20.8753 148.534 21.132 147.375 21.132ZM147.375 19.284C148.123 19.284 148.79 19.1153 149.377 18.778C149.978 18.426 150.448 17.942 150.785 17.326C151.122 16.6953 151.291 15.9767 151.291 15.17C151.291 14.3633 151.122 13.652 150.785 13.036C150.448 12.4053 149.978 11.9213 149.377 11.584C148.79 11.2467 148.123 11.078 147.375 11.078C146.627 11.078 145.952 11.2467 145.351 11.584C144.764 11.9213 144.295 12.4053 143.943 13.036C143.606 13.652 143.437 14.3633 143.437 15.17C143.437 15.9767 143.606 16.6953 143.943 17.326C144.295 17.942 144.764 18.426 145.351 18.778C145.952 19.1153 146.627 19.284 147.375 19.284ZM158.37 11.298C158.736 10.6233 159.279 10.11 159.998 9.758C160.716 9.406 161.589 9.23 162.616 9.23V11.276C162.498 11.2613 162.337 11.254 162.132 11.254C160.988 11.254 160.086 11.5987 159.426 12.288C158.78 12.9627 158.458 13.9307 158.458 15.192V21H156.346V9.34H158.37V11.298ZM179.805 9.23C181.271 9.23 182.43 9.65533 183.281 10.506C184.146 11.3567 184.579 12.618 184.579 14.29V21H182.467V14.532C182.467 13.4027 182.203 12.552 181.675 11.98C181.161 11.408 180.421 11.122 179.453 11.122C178.382 11.122 177.531 11.4593 176.901 12.134C176.27 12.794 175.955 13.7473 175.955 14.994V21H173.843V14.532C173.843 13.4027 173.579 12.552 173.051 11.98C172.537 11.408 171.797 11.122 170.829 11.122C169.758 11.122 168.907 11.4593 168.277 12.134C167.646 12.794 167.331 13.7473 167.331 14.994V21H165.219V9.34H167.243V11.078C167.668 10.4767 168.225 10.022 168.915 9.714C169.604 9.39133 170.389 9.23 171.269 9.23C172.178 9.23 172.985 9.41333 173.689 9.78C174.393 10.1467 174.935 10.682 175.317 11.386C175.757 10.7113 176.365 10.1833 177.143 9.802C177.935 9.42067 178.822 9.23 179.805 9.23Z" fill="white"/>
</svg>
